<svg width="327" height="323" viewBox="0 0 327 323" fill="none" xmlns="http://www.w3.org/2000/svg">
<path d="M316.057 291.494C314.604 290.678 312.786 290.02 310.857 289.582C306.499 288.596 301.642 288.523 296.906 288.462C255.869 287.963 215.114 287.78 174.066 287.78C141.745 287.525 109.436 287.257 77.1144 287.099C61.9181 287.026 46.6851 286.965 31.5376 287.671C25.2638 287.963 18.7336 288.438 13.5461 290.374C8.35861 292.309 5.06308 296.132 7.69952 299.224C12.0815 304.337 26.765 304.045 35.2481 304.057C100.659 304.154 166.083 303.96 231.494 303.753C253.392 303.68 275.289 303.619 297.15 302.986C302.044 302.84 307.098 302.657 311.492 301.476C315.898 300.307 319.548 297.897 319.279 295.255C319.145 293.819 317.888 292.528 316.057 291.494Z" fill="#D9E0FC"/>
<path d="M318.266 178.251C317.155 178.495 315.886 178.629 314.458 178.629C265.366 178.629 216.286 178.629 167.194 178.617C142.648 178.617 118.102 178.617 93.5677 178.604C82.143 178.604 36.3221 184.911 31.3543 173.65C30.3046 171.276 30.3046 168.658 30.3046 166.102C30.3046 117.905 30.4389 69.7088 30.4389 21.5122C30.4389 19.8079 30.4389 18.0914 30.4389 16.387C30.4389 12.7835 33.6613 9.86179 37.6282 9.86179C91.3096 9.86179 144.979 9.86179 198.66 9.86179C226.404 9.86179 254.148 9.86179 281.904 9.86179C293.586 9.86179 325.565 4.43224 325.565 19.6862C325.565 48.6722 325.553 77.6705 325.553 106.657C325.553 121.484 325.553 136.324 325.553 151.152C325.541 160.587 329.886 175.683 318.266 178.251Z" fill="#D9E0FC"/>
<path d="M301.702 168.452C297.223 171.52 288.935 169.779 282.039 169.779C268.454 169.779 254.881 169.779 241.295 169.779C204.544 169.779 167.804 169.779 131.052 169.779C94.0193 169.779 56.9988 169.779 19.9662 169.779C18.7212 169.779 17.7202 168.781 17.7202 167.539C17.708 138.821 17.5371 110.09 17.4761 81.3719C17.4395 67.0067 17.4395 52.6536 17.5005 38.2884C17.5372 28.8901 13.6923 8.24319 20.0272 0.890147C21.8092 -1.16724 44.8051 1.3771 47.6735 1.3771C60.0137 1.35275 72.3538 1.3284 84.6817 1.30406C108.63 1.25536 132.578 1.20668 156.526 1.14581C188.7 1.14581 220.887 1.01188 253.062 0.938834C269.991 0.902312 301.483 0.999713 303.863 1.02406C306.926 1.06058 305.608 48.6119 305.633 52.1301C305.791 71.7423 305.694 91.3667 305.511 110.979C305.376 125.624 305.169 140.269 305.01 154.927C304.986 156.874 304.961 158.822 304.961 160.77C304.974 164.702 303.716 167.064 301.702 168.452Z" fill="#FF6652"/>
<path d="M295.782 153.893C286.97 153.662 278.133 153.832 269.32 153.832C260.495 153.832 251.67 153.844 242.858 153.844C225.208 153.856 207.57 153.869 189.921 153.881C154.817 153.905 119.7 153.917 84.5961 154.015C74.6972 154.039 64.7859 154.063 54.887 154.1C45.0002 154.124 35.0402 154.002 25.1778 154.696C24.6042 154.733 24.6042 155.536 25.1778 155.585C33.9783 156.206 42.8276 156.096 51.6403 156.169C60.4651 156.242 69.2899 156.218 78.1026 156.242C95.7523 156.291 113.39 156.303 131.04 156.328C166.144 156.376 201.26 156.401 236.364 156.425C246.263 156.437 256.174 156.437 266.073 156.449C275.972 156.462 285.883 156.656 295.782 156.401C297.406 156.364 297.418 153.929 295.782 153.893Z" fill="#9C4DF4"/>
<path d="M285.639 152.553C285.346 151.652 284.833 150.861 284.125 150.204C283.21 149.303 282.136 148.67 280.891 148.329C280.671 148.256 280.452 148.183 280.244 148.11C279.28 147.805 278.315 147.769 277.363 147.976C276.399 148.025 275.508 148.305 274.678 148.828C274.19 149.205 273.702 149.583 273.213 149.96C272.505 150.618 272.005 151.385 271.724 152.285C271.395 152.845 271.236 153.454 271.236 154.111C271.016 155.073 271.065 156.023 271.37 156.985C271.614 157.557 271.859 158.129 272.103 158.713C272.75 159.797 273.616 160.661 274.703 161.306C274.898 161.44 275.081 161.574 275.276 161.708C276.424 162.365 277.656 162.706 278.975 162.706C279.622 162.621 280.268 162.536 280.928 162.451C282.173 162.098 283.247 161.477 284.162 160.576C284.882 159.918 285.383 159.127 285.676 158.226C286.139 157.35 286.347 156.412 286.31 155.414C286.31 154.367 286.103 153.43 285.639 152.553Z" fill="#9C4DF4"/>
<path d="M248.387 216.295L47.8812 213.337L48.6745 6.39258L247.801 7.92648L248.387 216.295Z" fill="white" stroke="black" stroke-width="0.5" stroke-miterlimit="10"/>
<path d="M92.8355 169.657C92.2374 177.278 91.6393 184.887 91.0412 192.508C90.9558 193.542 90.2234 194.419 89.1249 194.419C85.6096 194.431 82.1065 194.443 78.5912 194.468C75.4421 194.48 72.293 194.492 69.1438 194.504C68.3138 194.504 67.4472 194.516 66.7027 194.078C65.8849 193.591 65.4943 192.751 65.3844 191.85C65.2257 190.377 65.3967 188.819 65.4333 187.334C65.5553 181.052 65.7872 174.77 66.483 168.513C66.605 167.381 67.8744 167.125 68.4603 167.782C69.4856 167.466 70.7184 167.612 71.7315 167.612C73.0009 167.612 74.2581 167.624 75.5275 167.624C80.6295 167.649 85.7439 167.673 90.8459 167.673C91.859 167.673 92.9209 168.586 92.8355 169.657ZM87.3429 190.609C87.8067 184.29 88.2582 177.972 88.722 171.654C85.7316 171.666 82.729 171.69 79.7385 171.702C77.8832 171.715 76.028 171.727 74.1849 171.739C73.2328 171.751 72.2929 171.751 71.3409 171.751C70.9991 171.751 70.6574 171.751 70.3156 171.751C69.9495 172.056 69.4856 172.238 68.9974 172.262C69.095 174.296 69.156 176.341 69.1926 178.386C69.2415 181.32 69.1927 184.254 69.1561 187.188C69.1439 187.955 69.1316 188.722 69.1194 189.489C69.1072 189.89 69.1316 190.316 69.1316 190.743C69.2903 190.755 69.4368 190.767 69.5589 190.767L71.585 190.755C76.8335 190.706 82.0821 190.657 87.3429 190.609Z" fill="#9C4DF4"/>
<path d="M92.8355 125.222C92.2374 132.843 91.6393 140.451 91.0412 148.072C90.9558 149.107 90.2234 149.983 89.1249 149.983C85.6096 149.996 82.1065 150.008 78.5912 150.032C75.4421 150.044 72.293 150.057 69.1438 150.069C68.3138 150.069 67.4472 150.081 66.7027 149.643C65.8849 149.156 65.4943 148.316 65.3844 147.415C65.2257 145.942 65.3967 144.383 65.4333 142.898C65.5553 136.617 65.7872 130.335 66.483 124.077C66.605 122.945 67.8744 122.69 68.4603 123.347C69.4856 123.03 70.7184 123.177 71.7315 123.177C73.0009 123.177 74.2581 123.189 75.5275 123.189C80.6295 123.213 85.7439 123.237 90.8459 123.237C91.859 123.237 92.9209 124.15 92.8355 125.222ZM87.3429 146.173C87.8067 139.855 88.2582 133.537 88.722 127.218C85.7316 127.23 82.729 127.255 79.7385 127.267C77.8832 127.279 76.028 127.291 74.1849 127.303C73.2328 127.303 72.2929 127.316 71.3409 127.316C70.9991 127.316 70.6574 127.316 70.3156 127.316C69.9495 127.62 69.4856 127.803 68.9974 127.827C69.095 129.86 69.156 131.905 69.1926 133.95C69.2415 136.884 69.1927 139.818 69.1561 142.752C69.1439 143.519 69.1316 144.286 69.1194 145.053C69.1072 145.455 69.1316 145.881 69.1316 146.307C69.2903 146.319 69.4368 146.331 69.5589 146.331L71.585 146.319C76.8335 146.27 82.0821 146.222 87.3429 146.173Z" fill="#9C4DF4"/>
<path d="M92.8355 80.7872C92.2374 88.408 91.6393 96.0167 91.0412 103.638C90.9558 104.672 90.2234 105.549 89.1249 105.549C85.6096 105.561 82.1065 105.573 78.5912 105.598C75.4421 105.61 72.293 105.622 69.1438 105.634C68.3138 105.634 67.4472 105.646 66.7027 105.208C65.8849 104.721 65.4943 103.881 65.3844 102.98C65.2257 101.507 65.3967 99.9489 65.4333 98.4637C65.5553 92.1819 65.7872 85.9002 66.483 79.6428C66.605 78.5106 67.8744 78.255 68.4603 78.9124C69.4856 78.5959 70.7184 78.7419 71.7315 78.7419C73.0009 78.7419 74.2581 78.7541 75.5275 78.7541C80.6295 78.7785 85.7439 78.8028 90.8459 78.8028C91.859 78.8028 92.9209 79.7159 92.8355 80.7872ZM87.3429 101.738C87.8067 95.4202 88.2582 89.1019 88.722 82.7837C85.7316 82.7959 82.729 82.8202 79.7385 82.8324C77.8832 82.8446 76.028 82.8567 74.1849 82.8689C73.2328 82.8689 72.2929 82.8811 71.3409 82.8811C70.9991 82.8811 70.6574 82.8811 70.3156 82.8811C69.9495 83.1854 69.4856 83.368 68.9974 83.3924C69.095 85.4254 69.156 87.4706 69.1926 89.5159C69.2415 92.4498 69.1927 95.3837 69.1561 98.3176C69.1439 99.0845 69.1316 99.8515 69.1194 100.618C69.1072 101.02 69.1316 101.446 69.1316 101.872C69.2903 101.885 69.4368 101.897 69.5589 101.897L71.585 101.885C76.8335 101.836 82.0821 101.787 87.3429 101.738Z" fill="#9C4DF4"/>
<path d="M200.906 83.1122C194.498 82.9418 188.078 83.0757 181.67 83.0879C175.323 83.1 168.963 83.1 162.616 83.1122C149.788 83.1244 136.959 83.1852 124.143 83.2461C120.567 83.2583 116.991 83.2826 113.414 83.2948C109.789 83.307 106.115 83.234 102.502 83.4896C102.038 83.5261 102.038 84.1713 102.502 84.1957C105.688 84.4148 108.923 84.354 112.121 84.3783C115.331 84.4148 118.529 84.4148 121.739 84.427C128.086 84.4635 134.445 84.4879 140.792 84.5244C153.62 84.5852 166.449 84.5731 179.265 84.5974C186.479 84.6096 193.705 84.7679 200.906 84.5731C201.858 84.5609 201.858 83.1365 200.906 83.1122Z" fill="#969696"/>
<path d="M156.147 90.0394C142.294 89.8811 128.44 89.7472 114.586 89.7472C110.631 89.7472 106.665 89.7107 102.71 89.7715C101.953 89.7837 101.953 90.9402 102.71 90.9524C116.551 91.1715 130.417 90.9646 144.271 90.8794C148.226 90.855 152.193 90.7333 156.147 90.6846C156.562 90.6846 156.562 90.0515 156.147 90.0394Z" fill="#969696"/>
<path d="M198.684 97.4039C186.198 97.1726 173.699 97.3552 161.212 97.3795C148.726 97.4039 136.227 97.416 123.74 97.4404C116.685 97.4526 109.643 97.4647 102.588 97.5865C102.014 97.5986 102.014 98.463 102.588 98.4752C115.074 98.7065 127.573 98.6334 140.06 98.6456C152.546 98.67 165.045 98.6821 177.532 98.7065C184.587 98.7187 191.629 98.7795 198.684 98.6456C199.49 98.6456 199.49 97.416 198.684 97.4039Z" fill="#969696"/>
<path d="M166.339 127.353C162.115 127.073 157.831 127.304 153.596 127.316C149.348 127.328 145.1 127.34 140.853 127.353C132.358 127.377 123.874 127.401 115.379 127.426C110.57 127.438 105.785 127.499 100.976 127.669C100.634 127.681 100.634 128.193 100.976 128.205C109.459 128.485 117.955 128.448 126.45 128.473C134.945 128.497 143.428 128.521 151.924 128.546C154.267 128.558 156.598 128.558 158.942 128.57C161.395 128.582 163.873 128.68 166.327 128.509C167.095 128.473 167.095 127.401 166.339 127.353Z" fill="#969696"/>
<path d="M192.057 137.128C180.217 136.787 168.353 136.921 156.513 136.897C144.784 136.873 133.066 136.86 121.336 136.824L111.339 136.8C108.019 136.787 104.663 136.641 101.343 136.897C100.537 136.958 100.537 138.09 101.343 138.151C104.297 138.382 107.275 138.26 110.229 138.26C113.195 138.248 116.149 138.248 119.115 138.236C125.034 138.224 130.966 138.212 136.886 138.2C148.616 138.175 160.334 138.163 172.064 138.139C178.728 138.127 185.393 138.127 192.057 137.932C192.57 137.907 192.57 137.14 192.057 137.128Z" fill="#969696"/>
<path d="M195.523 174.538C183.159 174.234 170.794 174.38 158.43 174.392C146.065 174.392 133.7 174.405 121.336 174.441C114.415 174.465 107.482 174.551 100.561 174.465C99.7559 174.453 99.7559 175.719 100.561 175.719C112.926 175.573 125.291 175.78 137.655 175.792C150.02 175.792 162.384 175.804 174.749 175.804C181.67 175.804 188.59 175.817 195.523 175.646C196.231 175.634 196.231 174.563 195.523 174.538Z" fill="#969696"/>
<path d="M120.555 181.063C114.012 181.063 107.482 181.197 100.952 181.258C100.488 181.258 100.488 181.964 100.952 181.964C107.482 182.025 114.024 182.159 120.555 182.159C121.275 182.171 121.275 181.063 120.555 181.063Z" fill="#969696"/>
<path d="M186.674 181.88C179.436 181.405 172.137 181.612 164.887 181.648C157.563 181.685 150.24 181.734 142.916 181.77C138.791 181.795 134.665 181.819 130.552 182.026C130.088 182.05 130.088 182.72 130.552 182.732C137.802 183.097 145.077 183 152.339 183.036C159.663 183.073 166.986 183.122 174.31 183.122C178.435 183.122 182.561 183.146 186.674 182.878C187.321 182.841 187.333 181.928 186.674 181.88Z" fill="#969696"/>
<path d="M158.613 189.049C151.375 188.672 144.076 188.952 136.838 188.976C129.648 189.001 122.435 188.976 115.245 189.232C111.132 189.378 106.994 189.329 102.881 189.341C102.466 189.341 102.466 189.987 102.881 189.987C117.345 190.06 131.797 190.328 146.261 190.388C150.386 190.401 154.512 190.498 158.625 190.279C159.406 190.242 159.406 189.098 158.613 189.049Z" fill="#969696"/>
<path d="M232.227 33.5159C225.245 32.9681 218.068 33.3942 211.062 33.3942C204.446 33.3942 197.83 33.4064 191.227 33.4064C177.776 33.4186 164.337 33.4185 150.887 33.4307C137.436 33.4429 123.997 33.4672 110.546 33.5281C96.9487 33.589 83.0951 33.0168 69.5465 34.1855C66.5805 34.4412 66.5683 38.4707 69.5465 38.7385C83.0951 39.9072 96.9487 39.3351 110.546 39.3959C123.997 39.4568 137.436 39.4812 150.887 39.4933C164.337 39.5055 177.776 39.5055 191.227 39.5177C197.843 39.5177 204.458 39.5299 211.062 39.5299C218.068 39.5299 225.233 39.9559 232.227 39.4081C236.071 39.0916 236.084 33.8203 232.227 33.5159Z" fill="black"/>
<path d="M199.673 50.4981C197.44 48.7329 195.67 49.0494 192.838 49.0494C190.202 49.0494 187.565 49.0494 184.929 49.0494L168.451 49.0616C157.246 49.0738 146.041 49.0737 134.836 49.0859L101.88 49.1103C96.1676 49.1103 90.4552 49.1711 84.7429 49.2442C80.007 49.3051 73.6599 48.392 69.3634 50.5468C68.2283 51.119 68.2283 52.9329 69.3634 53.5051C73.6721 55.672 79.9948 54.7468 84.7429 54.8077C90.2355 54.8807 95.7282 54.9294 101.221 54.9416C112.426 54.9537 123.631 54.9537 134.836 54.9659L167.792 54.9903C173.504 54.9903 179.216 55.0024 184.929 55.0024C187.565 55.0024 190.202 55.0024 192.838 55.0024C195.597 55.0024 197.464 55.2946 199.673 53.5537C200.54 52.8842 200.528 51.1798 199.673 50.4981Z" fill="black"/>
<path d="M148.751 143.762C146.834 143.227 145.308 141.096 144.527 139.331C143.697 137.444 143.856 134.973 145.443 133.658C146.456 132.818 147.86 132.599 149.178 132.733C153.267 133.183 156.416 136.848 157.539 140.804C158.662 144.748 158.186 148.961 157.71 153.039C157.356 156.021 157.002 159.004 156.648 161.987C155.964 167.781 156.733 173.844 156.733 179.688C156.733 180.418 156.758 181.173 157.112 181.806C157.771 182.974 159.26 183.303 160.59 183.51C166.974 184.533 173.541 185.762 180.034 185.531C185.246 185.348 188.224 183.802 192.972 187.479C195.572 189.487 197.562 192.616 197.232 195.879C197.049 197.632 196.219 199.275 195.096 200.651C190.666 206.044 182.756 206.774 175.762 206.604C167.511 206.397 159.272 205.521 151.155 203.987C142.916 202.416 137.167 198.301 136.471 189.597C135.812 181.355 138.388 173.126 140.634 165.298C142.721 158.018 146.798 151.31 148.665 144.091C148.702 143.957 148.726 143.86 148.751 143.762Z" fill="#FBC2AA"/>
<path d="M195.011 191.691C194.95 191.326 194.889 190.961 194.828 190.608C194.303 186.992 193.803 182.476 197.745 181.343C200.345 180.589 204.898 180.929 206.631 178.519C207.192 177.74 207.351 176.766 207.485 175.829C207.693 174.489 207.888 173.138 208.096 171.799C200.54 173.089 197.391 166.345 196.439 160.039C195.463 153.599 195.67 145.564 201.358 141.255C204.983 138.503 210.061 137.846 214.321 139.453C218.58 141.06 221.913 144.834 223.121 149.216C224.012 152.455 222.95 153.636 222.767 156.983C222.547 160.769 222.889 167.307 222.682 171.093C222.535 173.637 222.755 176.608 224.146 178.823C224.781 179.834 225.55 180.698 226.624 181.246C227.405 181.648 229.431 181.429 229.92 181.964C232.69 184.996 235.278 188.209 238.281 190.997C231.189 193.968 223.78 196.086 216.2 197.376C210.891 198.289 200.15 201.418 196.488 195.782C195.682 194.54 195.279 193.128 195.011 191.691Z" fill="#FBC2AA"/>
<path d="M257.822 209.526C257.065 200.189 252.867 190.62 244.335 185.946C241.198 184.229 237.744 183.194 234.277 182.379C232.495 181.952 230.689 181.587 228.906 181.186C226.905 180.735 226.502 181.21 225.135 182.707C222.315 185.824 217.86 187.212 213.674 186.773C211.025 186.506 208.474 185.544 206.204 184.18C203.738 182.695 202.871 180.869 199.747 181.039C190.287 181.575 180.84 182.427 171.429 183.596C172.125 191.777 172.674 203.366 174.383 211.389C179.363 210.89 190.372 209.794 190.36 211.304C190.348 213.605 190.397 215.918 190.47 218.219C190.629 222.711 190.91 227.203 191.093 231.695C191.288 236.467 191.642 241.239 192.069 245.987C192.557 251.405 193.387 256.725 194.596 261.984C206.899 266.074 220.936 265.076 234.131 263.883C237.89 263.542 241.796 263.165 245.055 261.253C254.209 255.872 254.6 239.949 255.906 230.685C256.919 223.551 258.408 216.843 257.822 209.526Z" fill="#FF6652"/>
<path d="M163.434 302.572C163.593 302.34 163.764 302.109 163.934 301.89C167.12 297.812 172.625 295.158 177.129 292.759C182.097 290.118 187.65 287.939 193.375 288.267C198.538 288.559 205.703 292.053 206.777 297.507C206.899 298.128 206.948 298.786 206.704 299.358C206.094 300.794 204.153 300.916 202.59 300.928C195.926 300.989 189.518 303.034 183.293 305.238C180.095 306.37 176.909 307.575 173.663 308.61C170.77 309.535 163.739 313.589 161.713 309.377C160.602 307.076 162.152 304.446 163.434 302.572Z" fill="black"/>
<path d="M134.543 247.813C137.24 244.843 141.073 242.919 145.003 242.177C150.52 241.142 156.22 242.14 161.64 243.638C173.113 246.791 183.867 252.099 195.389 255.057C200.503 256.372 203.836 255.885 208.828 255.483C215.163 254.972 221.668 255.592 228.04 255.215C233.996 254.862 240.441 254.399 246.019 256.043C246.751 255.556 247.484 255.081 248.216 254.594C254.441 250.516 260.654 246.462 268.466 247.947C274.605 249.116 280.537 252.22 284.333 257.26C288.373 262.617 287.165 269.617 283.54 274.961C280.537 279.38 276.107 282.643 271.517 285.382C255.686 294.853 238.39 300.66 219.703 299.37C217.201 299.199 214.259 299.163 212.453 301.172C211.782 301.926 211.379 306.053 209.877 305.871C208.022 305.652 204.458 305.14 202.713 304.507C193.265 301.111 183.83 297.702 174.383 294.305C166.083 291.311 157.734 288.304 150.178 283.763C143.636 279.843 137.716 274.535 134.25 267.657C131.748 262.702 129.697 256.177 132.309 251.027C132.919 249.846 133.664 248.775 134.543 247.813Z" fill="#9C4DF4"/>
<path d="M251.731 262.057C246.422 264.698 240.868 266.391 235.778 269.531C230.701 272.66 225.892 276.312 220.362 278.686C216.786 280.22 211.586 280.817 208.156 282.521" stroke="black" stroke-width="0.5" stroke-miterlimit="10"/>
<path d="M212.575 300.453C212.587 300.44 212.587 300.416 212.599 300.404C213.1 299.26 213.588 298.115 214.088 296.971C215.077 294.694 216.066 292.43 217.042 290.154C217.152 289.898 225.635 294.195 226.368 294.792C226.697 295.06 227.014 295.352 227.222 295.717C227.515 296.216 227.576 296.813 227.649 297.385C227.845 298.992 228.089 300.635 227.783 302.23C227.478 303.825 226.49 305.395 224.952 305.907C223.78 306.296 222.511 306.016 221.314 305.748C219.032 305.225 216.798 304.738 214.552 304.08C213.905 303.886 212.209 303.825 211.745 303.362C211.159 302.79 212.319 301.061 212.575 300.453Z" fill="#FBC2AA"/>
<path d="M222.022 291.895C222.645 291.98 223.292 292.004 223.963 291.944C225.33 291.834 226.673 291.445 228.04 291.469C230.762 291.518 231.946 293.636 233.081 295.778C235.083 299.565 238.696 302.328 241.625 305.371C245.299 309.182 247.423 312.773 246.825 318.227C246.617 320.151 245.836 322.354 243.968 322.878C242.247 323.364 240.551 322.159 239.172 321.027C235.424 317.959 231.665 314.904 227.918 311.836C226.209 310.436 224.463 308.573 222.523 307.526C221.29 306.869 219.886 306.382 218.605 305.737C219.984 301.184 221.143 296.57 222.022 291.895Z" fill="black"/>
<path d="M202.871 264.54C202.188 264.199 201.663 263.578 201.26 262.422C200.577 260.474 200.979 258.173 202.078 256.457C203.494 254.241 206.094 252.537 208.669 252.001C211.318 251.441 213.881 250.504 216.578 249.956C218.519 249.566 220.423 249.031 222.327 248.495C228.15 246.864 234.423 245.622 239.953 243.187C240.295 243.041 240.636 242.871 240.832 242.554C241.088 242.128 240.978 241.592 240.856 241.105C239.001 233.667 237.304 226.192 235.754 218.681C235.229 216.125 234.716 213.544 234.741 210.938C234.79 206.203 236.694 201.516 239.965 198.083C241.967 195.977 244.737 194.285 247.618 194.613C249.986 194.893 252.024 196.525 253.367 198.509C254.71 200.493 255.43 202.794 256.15 205.058C258.567 212.716 261.374 220.471 262.46 228.432C262.741 230.514 262.729 232.62 262.717 234.714C262.68 240.74 262.521 247.144 259.201 252.172C248.265 268.679 222.901 266.646 205.898 265.064C204.629 264.978 203.652 264.93 202.871 264.54Z" fill="#FBC2AA"/>
<path d="M207.68 136.312C204.604 136.775 201.65 138.016 199.173 140.037C196.414 142.289 195.547 144.676 194.974 148.206C194.937 148.437 194.913 148.693 195.047 148.888C195.194 149.095 195.486 149.143 195.743 149.18C200.137 149.703 204.555 150.081 208.986 150.312C209.474 150.336 209.975 150.361 210.426 150.178C211.549 149.728 211.989 148.206 213.136 147.816C213.295 149.29 213.185 150.799 212.831 152.236C212.672 152.869 212.465 153.538 212.672 154.159C213.087 155.413 214.564 155.389 215.516 155.961C216.7 156.667 217.848 158.103 218.299 159.394C218.897 161.098 219.166 162.961 220.216 164.47C220.484 164.86 220.801 165.213 221.107 165.566C221.68 166.223 222.242 166.881 222.815 167.538C223.169 167.27 223.34 166.844 223.487 166.443C224.683 163.229 225.952 160.039 226.709 156.703C227.393 153.709 227.368 150.519 226.587 147.549C226.245 146.21 225.623 144.858 225 143.629C224.659 142.947 224.207 142.229 223.767 141.596C223.633 141.401 222.315 139.684 222.083 139.83C222.376 139.636 222.742 139.27 222.608 138.881C222.449 138.418 221.375 138.747 221.082 138.905C221.253 138.637 221.497 138.406 221.668 138.138C221.839 137.87 221.949 137.517 221.815 137.225C221.729 137.043 221.558 136.909 221.375 136.811C220.899 136.58 220.325 136.641 219.874 136.896C219.398 137.164 218.995 137.651 218.885 138.175C215.272 136.592 211.671 135.716 207.68 136.312Z" fill="black"/>
<path d="M160.26 252.877C170.892 257.673 179.448 266 189.115 272.501C198.147 278.564 208.156 283.02 218.104 287.451C217.579 288.583 217.372 289.715 216.859 290.847" stroke="black" stroke-width="0.5" stroke-miterlimit="10"/>
<path d="M205.667 162.389C205.032 164.458 202.493 165.712 200.467 164.97" stroke="#1C1C1B" stroke-width="0.5" stroke-miterlimit="10"/>
<path d="M216.395 161.78C220.313 162.754 222.755 158.639 221.558 155.948C219.898 152.211 214.65 152.832 213.686 156.764" fill="#FBC2AA"/>
<path d="M218.397 155.644C217.665 155.437 216.81 155.559 216.188 155.961C215.565 156.362 215.211 157.02 215.236 157.665" stroke="#1C1C1B" stroke-width="0.5" stroke-miterlimit="10"/>
<path d="M247.569 189.987C240.417 190.742 233.862 195.697 231.213 202.381C228.467 209.32 229.834 217.111 231.238 224.44C235.852 224.306 239.928 224.622 244.518 223.721C250.474 222.553 256.26 220.714 261.862 218.45C260.202 207.847 257.126 197.681 249.534 190.036C248.802 189.281 248.619 189.878 247.569 189.987Z" fill="#FF6652"/>
<path d="M166.925 121.411C160.993 124.004 155.623 127.352 150.533 131.345C148.067 133.281 145.736 135.46 143.539 137.688C142.367 138.881 141.256 140.147 140.158 141.401C139.926 140.707 139.694 140.025 139.462 139.343C138.717 137.128 137.875 134.973 136.948 132.83C136.081 130.797 135.129 128.801 134.104 126.841C133.03 124.783 131.992 122.032 129.795 120.997C128.281 120.279 126.927 121.18 126.719 122.763C126.414 125.1 128.269 127.267 129.319 129.239C130.356 131.199 131.321 133.183 132.2 135.217C133.005 137.055 133.75 138.99 134.421 140.914C135.153 142.996 135.666 145.175 136.435 147.232C137.192 149.253 139.828 149.752 141.061 147.829C142.66 145.321 144.906 143.044 146.944 140.877C149.031 138.662 151.216 136.568 153.45 134.498C157.954 130.323 162.751 126.403 167.719 122.787C168.561 122.178 167.865 120.997 166.925 121.411Z" fill="#9C4DF4"/>
<path d="M236.156 270.371H175.896C175.017 270.371 174.297 269.653 174.297 268.776C174.297 267.9 175.017 267.182 175.896 267.182H236.156C237.035 267.182 237.755 267.9 237.755 268.776C237.755 269.653 237.035 270.371 236.156 270.371Z" fill="black"/>
<path d="M227.222 268.204H174.48L163.531 241.227C163.177 240.35 163.824 239.389 164.776 239.389H214.625C215.174 239.389 215.663 239.717 215.87 240.229L227.222 268.204Z" fill="black"/>
<path d="M189.823 253.815C190.384 255.275 192.276 256.456 194.046 256.456C195.816 256.456 196.804 255.275 196.243 253.815C195.681 252.354 193.79 251.173 192.02 251.173C190.25 251.173 189.261 252.354 189.823 253.815Z" stroke="white" stroke-width="0.5" stroke-miterlimit="10"/>
<path d="M207.705 171.641C207.803 172.651 207.717 173.662 207.62 174.66C207.681 174.648 207.754 174.623 207.815 174.611C209.89 173.966 211.599 172.286 212.478 170.302C211.025 171.105 209.377 171.556 207.705 171.641Z" fill="black"/>
<path d="M148.848 143.921C146.565 142.362 144.258 140.792 142.415 138.747C142.037 138.333 141.683 137.87 141.585 137.322C141.488 136.774 141.768 136.129 142.305 135.983C142.904 135.825 143.453 136.324 143.917 136.75C145.662 138.369 147.969 139.404 150.349 139.623" fill="white"/>
<path d="M148.848 143.921C146.565 142.362 144.258 140.792 142.415 138.747C142.037 138.333 141.683 137.87 141.585 137.322C141.488 136.774 141.768 136.129 142.305 135.983C142.904 135.825 143.453 136.324 143.917 136.75C145.662 138.369 147.969 139.404 150.349 139.623" stroke="#1C1C1B" stroke-width="0.5" stroke-miterlimit="10"/>
<path d="M228.479 312.907C228.577 312.846 228.674 312.773 228.772 312.7C228.882 312.615 229.004 312.566 229.126 312.505C229.37 312.395 229.602 312.286 229.846 312.188C229.748 312.237 229.638 312.274 229.541 312.322C229.992 312.128 230.432 311.884 230.822 311.592C230.92 311.519 231.006 311.446 231.103 311.361C231.262 311.215 231.421 311.081 231.64 311.02C232.031 310.898 232.519 311.093 232.727 311.446C232.91 311.762 232.897 312.115 232.739 312.432C232.702 312.505 232.653 312.566 232.617 312.639C232.531 312.773 232.446 312.907 232.348 313.028C232.104 313.357 231.848 313.674 231.555 313.954C231.262 314.246 230.945 314.514 230.591 314.721C230.371 314.855 230.139 315.001 229.883 315.049C229.626 315.11 229.358 315.134 229.101 315.159C228.992 315.147 228.882 315.134 228.784 315.11C228.625 315.074 228.491 315.001 228.369 314.891C228.174 314.733 227.991 314.514 227.93 314.258C227.795 313.722 228.015 313.211 228.479 312.907Z" fill="#FF6652"/>
<path d="M225.562 309.56C225.623 309.353 225.733 309.17 225.879 309.012C226.148 308.708 226.428 308.403 226.697 308.087C226.819 307.953 226.953 307.868 227.124 307.819C227.283 307.734 227.454 307.697 227.637 307.709C227.82 307.697 227.991 307.746 228.15 307.819C228.308 307.868 228.455 307.965 228.577 308.087C228.65 308.172 228.711 308.269 228.784 308.355C228.906 308.561 228.967 308.781 228.967 309.012C228.955 309.134 228.931 309.243 228.918 309.365C228.857 309.584 228.748 309.779 228.577 309.949C228.272 310.229 227.966 310.497 227.649 310.765C227.539 310.887 227.405 310.972 227.246 311.021C227.1 311.094 226.941 311.13 226.77 311.13C226.599 311.142 226.441 311.106 226.294 311.021C226.136 310.972 226.001 310.887 225.891 310.765C225.83 310.68 225.757 310.595 225.696 310.509C225.586 310.315 225.525 310.108 225.525 309.876C225.525 309.779 225.537 309.669 225.562 309.56Z" fill="#FF6652"/>
<path d="M221.949 306.382C222.144 306.09 222.34 305.798 222.535 305.506C222.608 305.372 222.718 305.25 222.84 305.177C222.95 305.067 223.096 305.006 223.243 304.958C223.401 304.909 223.56 304.897 223.719 304.933C223.878 304.946 224.024 304.982 224.158 305.079C224.244 305.14 224.317 305.201 224.402 305.262C224.549 305.408 224.659 305.591 224.708 305.786C224.72 305.895 224.732 305.992 224.756 306.102C224.756 306.321 224.695 306.516 224.598 306.699C224.402 306.991 224.207 307.283 224.012 307.575C223.939 307.709 223.829 307.831 223.707 307.904C223.597 308.013 223.45 308.074 223.304 308.123C223.145 308.172 222.986 308.184 222.828 308.147C222.669 308.135 222.523 308.099 222.388 308.001C222.303 307.94 222.23 307.879 222.144 307.819C221.998 307.672 221.888 307.49 221.839 307.295C221.827 307.186 221.815 307.088 221.803 306.979C221.778 306.772 221.839 306.565 221.949 306.382Z" fill="#FF6652"/>
<path d="M179.485 303.569C179.558 303.314 179.753 303.046 179.985 302.924C180.241 302.79 180.547 302.73 180.827 302.815C180.913 302.851 180.998 302.888 181.084 302.924C181.242 303.022 181.377 303.156 181.474 303.314C181.657 303.557 181.853 303.801 182.036 304.044C182.133 304.166 182.243 304.276 182.341 304.385C182.39 304.434 182.438 304.483 182.475 304.531C182.561 304.616 182.646 304.714 182.707 304.823C182.768 304.921 182.817 305.055 182.853 305.164C182.939 305.432 183.012 305.7 183.098 305.968C183.195 306.296 183.061 306.649 182.792 306.856C182.536 307.051 182.145 307.1 181.853 306.917C181.657 306.796 181.474 306.674 181.279 306.552C181.23 306.516 181.181 306.491 181.132 306.455C180.937 306.321 180.778 306.175 180.656 305.968C180.583 305.858 180.522 305.749 180.449 305.639C180.193 305.213 179.875 304.823 179.582 304.422C179.436 304.19 179.424 303.813 179.485 303.569Z" fill="#FF6652"/>
<path d="M184.148 301.975C184.221 301.719 184.416 301.451 184.648 301.329C185.026 301.122 185.502 300.964 185.771 301.378C186.198 302.048 186.625 302.717 187.065 303.387C187.407 303.922 187.76 304.543 187.553 305.14C187.492 305.335 187.358 305.517 187.162 305.615C186.894 305.736 186.577 305.651 186.308 305.505C185.844 305.249 185.588 304.799 185.307 304.361C185.234 304.251 185.173 304.142 185.1 304.032C184.843 303.606 184.526 303.216 184.233 302.815C184.099 302.595 184.074 302.218 184.148 301.975Z" fill="#FF6652"/>
<path d="M175.201 305.395C175.25 305.237 175.347 305.091 175.469 304.982C175.713 304.75 176.043 304.592 176.385 304.604C176.714 304.616 177.08 304.726 177.3 304.982C177.788 305.566 178.277 306.138 178.753 306.722C178.875 306.844 178.972 306.978 179.021 307.136C179.107 307.295 179.143 307.453 179.131 307.635C179.143 307.818 179.094 307.976 179.021 308.135C178.972 308.293 178.875 308.439 178.753 308.549C178.509 308.78 178.179 308.938 177.837 308.926C177.508 308.914 177.141 308.804 176.922 308.549C176.434 307.964 175.945 307.392 175.469 306.808C175.347 306.686 175.25 306.552 175.201 306.394C175.115 306.235 175.079 306.077 175.091 305.895C175.079 305.712 175.115 305.554 175.201 305.395Z" fill="#FF6652"/>
<path d="M282.295 263.066C281.734 264.186 282.027 265.586 281.49 266.719C281.099 267.559 280.318 268.143 279.781 268.91C278.951 270.103 278.817 271.783 279.61 273C280.391 274.218 282.112 274.79 283.418 274.145C284.456 273.633 285.054 272.514 285.469 271.43C286.323 269.19 287.226 265.684 286.494 263.298C285.884 261.362 283.345 260.948 282.295 263.066Z" fill="black"/>
<path d="M132.663 254.727C133.603 253.973 134.994 253.79 136.081 254.35C137.155 254.91 137.826 256.188 137.594 257.369C137.472 258.014 137.106 258.623 137.082 259.28C137.045 260.12 137.558 260.887 137.826 261.691C138.229 262.884 138.058 264.296 137.216 265.221C136.374 266.159 134.848 266.463 133.798 265.781C132.687 265.051 132.407 263.578 132.199 262.263C131.833 259.901 130.38 256.553 132.663 254.727Z" fill="black"/>
<path d="M192.435 208.59C192.326 208.48 192.106 208.456 191.996 208.59C191.703 208.955 191.386 209.32 191.117 209.697C190.983 209.88 190.849 210.063 190.714 210.245C190.58 210.428 190.421 210.61 190.299 210.817C190.153 211.061 190.483 211.304 190.69 211.11C190.849 210.951 190.995 210.769 191.142 210.598C191.288 210.428 191.435 210.257 191.581 210.087C191.886 209.746 192.155 209.381 192.435 209.028C192.533 208.894 192.557 208.723 192.435 208.59Z" fill="black"/>
<path d="M238.183 224.208C237.255 224.221 236.352 224.403 235.485 224.72C235.217 222.881 234.948 221.055 234.668 219.217C234.375 217.281 234.021 215.346 233.752 213.398C233.74 213.301 233.569 213.325 233.581 213.422C233.801 215.407 233.935 217.391 234.167 219.375C234.399 221.323 234.655 223.271 234.924 225.219C234.948 225.377 235.168 225.487 235.302 225.438C236.218 225.061 237.17 224.866 238.171 224.841C238.598 224.829 238.598 224.208 238.183 224.208Z" fill="black"/>
<path d="M105.212 286.722C103.467 289.96 99.756 291.53 96.3506 292.322C95.3253 292.565 94.2878 292.748 93.2503 292.942C92.4325 293.089 91.5659 293.186 90.7847 293.49C89.0026 294.172 90.9556 295.268 91.8588 295.669C92.3959 295.913 92.5302 296.692 92.2494 297.167C91.9199 297.702 91.2974 297.8 90.7481 297.556C90.0036 297.216 89.1858 296.716 88.6121 296.071L87.4525 299.967H69.9493L68.5822 275.278L94.9714 274.84L94.2756 277.165C97.1928 276.325 100.781 276.009 103.393 277.762C106.347 279.758 106.835 283.69 105.212 286.722ZM102.209 279.758C99.7805 278.054 96.2285 278.699 93.6165 279.551C93.5921 279.563 93.5677 279.576 93.5432 279.576L89.9914 291.445C90.6017 291.214 91.273 291.056 91.871 290.934C95.2887 290.24 99.158 289.753 101.807 287.245C103.796 285.37 104.87 281.633 102.209 279.758Z" fill="#9C4DF4"/>
<path d="M89.9058 280.951C89.3566 282.875 88.8073 284.786 88.3313 286.721C88.2337 287.111 88.8073 287.257 88.9294 286.88C89.5519 284.981 90.1011 283.057 90.6504 281.146C90.7846 280.683 90.0401 280.488 89.9058 280.951Z" fill="black"/>
<path d="M87.428 290.204C87.1472 291.165 86.8665 292.115 86.5857 293.077C86.305 294.038 86.0975 295.012 85.8534 295.974C85.7558 296.376 86.3417 296.534 86.4637 296.144C86.7689 295.195 87.1106 294.245 87.3792 293.296L88.1848 290.411C88.3191 289.924 87.5622 289.717 87.428 290.204Z" fill="black"/>
<path d="M86.4152 287.44C86.3175 287.415 86.1832 287.464 86.1588 287.586C86.0856 288 86.0246 288.414 85.9513 288.815C85.9391 288.925 85.9758 289.047 86.0978 289.071C86.1955 289.095 86.3298 289.047 86.3542 288.925C86.4274 288.511 86.4884 288.097 86.5616 287.695C86.5739 287.586 86.525 287.464 86.4152 287.44Z" fill="black"/>
<path d="M258.628 245.646C258.469 247.911 257.42 250.017 255.869 251.648C255.686 251.843 255.967 252.111 256.162 251.94C257.932 250.346 258.909 248.02 258.982 245.646C258.982 245.415 258.64 245.427 258.628 245.646Z" fill="black"/>
<path d="M143.831 195.916C142.891 195.49 141.951 195.051 141.012 194.637C140.816 194.552 140.633 194.844 140.841 194.93C141.781 195.368 142.72 195.782 143.66 196.208C143.856 196.293 144.039 196.001 143.831 195.916Z" fill="black"/>
<path d="M81.8868 224.123C79.4334 227.215 76.4429 229.845 73.7942 232.766C70.9869 235.859 68.8265 239.474 66.0191 242.566C63.5779 245.269 60.6607 247.545 57.4628 249.286C55.2047 250.516 49.944 253.474 47.2587 252.817C42.0589 251.526 45.9527 242.798 47.5882 239.925C49.5412 236.479 52.2875 233.497 55.1925 230.831C58.2317 228.055 61.5273 225.584 64.7985 223.1C68.4725 220.3 72.1343 217.512 75.8082 214.712C76.6993 214.043 77.5659 213.337 78.4813 212.692C79.2381 212.156 80.0681 211.718 80.9957 211.608C82.5947 211.438 84.0472 212.485 84.8162 213.824C86.8302 217.342 84.035 221.42 81.8868 224.123Z" fill="#9C4DF4"/>
<path d="M26.2523 229.711C26.9969 225.718 28.6203 221.944 29.5479 217.999C30.7807 212.765 30.7807 207.323 31.745 202.04C32.7092 196.756 34.8819 191.339 39.276 188.246C40.4966 187.394 41.8881 186.725 43.365 186.615C46.0381 186.408 48.5891 188.064 50.1026 190.279C51.604 192.483 52.2264 195.173 52.5926 197.827C54.0451 208.26 51.9946 219.156 46.8315 228.347C45.2203 231.22 43.3161 233.923 41.9125 236.893C40.045 240.826 39.0685 245.16 38.8732 249.506C38.7878 251.393 38.8244 253.365 37.9944 255.069C37.201 256.725 34.296 259.245 32.2942 258.186C30.5122 257.236 29.2794 251.648 28.6447 249.846C26.411 243.419 24.9829 236.504 26.2523 229.711Z" fill="#9C4DF4"/>
<path d="M8.74923 229.637C8.38306 227.689 8.07791 225.449 9.35953 223.94C11.1294 221.846 14.6935 222.71 16.6098 224.67C18.8191 226.922 19.7345 230.148 20.0152 233.289C20.296 236.43 20.0397 239.595 20.2838 242.724C20.6622 247.533 22.2245 252.147 23.2376 256.858C24.1653 261.143 22.4076 264.065 19.2219 259.828C17.0615 256.968 15.4381 253.656 14.1076 250.345C11.459 243.698 10.0797 236.625 8.74923 229.637Z" fill="#9C4DF4"/>
<path d="M68.4848 226.656C67.5205 228.409 66.4342 230.052 65.1404 231.574C63.8466 233.083 62.4184 234.483 60.9537 235.835C58.0121 238.537 54.8386 240.996 52.0434 243.857C50.7008 245.233 49.4436 246.694 48.3694 248.289C47.1122 250.151 46.1846 252.184 45.4766 254.315C44.6344 256.835 43.9998 259.428 43.304 261.996C42.5717 264.675 41.8393 267.365 41.107 270.043C40.3136 272.965 39.5202 275.875 38.8855 278.833C38.5804 280.269 38.3118 281.718 38.0921 283.179C37.9944 283.861 37.9212 284.555 37.848 285.249C37.8113 285.626 37.7869 285.991 37.7625 286.369C37.7503 286.515 37.7504 286.661 37.7504 286.807C37.787 286.466 37.848 286.125 37.8846 285.809C37.9823 285.042 38.0921 284.275 38.2142 283.508C38.4217 282.205 38.678 280.915 38.9587 279.636C39.5324 277.056 40.2404 274.523 40.9483 271.979C42.4008 266.756 43.78 261.509 45.318 256.323C46.0137 253.986 46.8437 251.685 48.1132 249.579C49.1262 247.911 50.3468 246.389 51.6773 244.965C54.3992 242.068 57.5239 239.596 60.5265 236.991C63.7977 234.142 67.2154 231.002 69.1439 227.045C69.3514 226.595 68.7289 226.217 68.4848 226.656Z" fill="#1C1C1B"/>
<path d="M37.7138 287.404C37.7382 287.209 37.7383 287.002 37.7505 286.795C37.7139 287.002 37.7016 287.209 37.7138 287.404Z" fill="#1C1C1B"/>
<path d="M37.7261 287.768C37.7139 287.647 37.7139 287.525 37.7139 287.403C37.7016 287.525 37.6772 287.647 37.6528 287.756C37.6284 287.817 37.7261 287.817 37.7261 287.768Z" fill="#1C1C1B"/>
<path d="M36.1637 235.067C36.5177 230.405 37.3477 225.766 38.9589 221.36C39.0077 221.226 38.8003 221.165 38.7514 221.299C35.7854 229.09 35.346 237.478 35.4436 245.732C35.4924 249.98 35.6755 254.229 35.7121 258.478C35.7609 262.885 35.6023 267.28 35.2239 271.662C34.8211 276.3 34.2353 280.914 33.625 285.528C28.5351 274.779 23.8846 263.822 19.759 252.671C18.5506 249.396 17.3789 246.097 16.2559 242.786C16.1095 242.36 15.4381 242.542 15.5724 242.968C19.5271 254.704 24.0311 266.257 29.0843 277.566C30.5124 280.756 31.9771 283.921 33.5029 287.074C33.6859 287.464 34.1864 287.208 34.223 286.88C35.3582 278.005 36.4201 269.118 36.3591 260.158C36.298 251.819 35.529 243.443 36.1637 235.067Z" fill="#1C1C1B"/>
<path d="M19.429 273.294C21.382 282.266 22.7124 291.664 21.3087 300.697C24.4578 300.71 40.3377 300.795 45.452 300.746C45.3909 299.955 45.3299 299.176 45.2933 298.384C45.0003 292.784 45.3665 287.148 47.0387 281.767C47.4415 280.464 48.2837 276.228 48.8208 274.962L48.7231 273.294H19.429Z" fill="#FF6652"/>
<path d="M49.9438 268.314L18.538 268.363C18.2695 268.363 18.0133 268.387 17.7569 268.436V275.68C18.0133 275.728 18.2695 275.753 18.538 275.753L49.2847 275.692L49.9438 268.314Z" fill="#1A0400"/>
<path d="M44.2442 279.307C43.8048 279.819 43.463 280.464 43.1579 281.06C42.8527 281.657 42.5963 282.29 42.3522 282.923C41.864 284.226 41.5711 285.54 41.4368 286.916C41.388 287.488 42.3523 287.634 42.4621 287.05C42.694 285.784 42.9991 284.505 43.4141 283.276C43.6216 282.667 43.8658 282.071 44.1343 281.474C44.3906 280.89 44.7202 280.318 44.9643 279.721C45.123 279.332 44.5127 278.991 44.2442 279.307Z" fill="#1C1C1B"/>
<path d="M42.0221 290.544C42.0343 290.13 41.3874 290.13 41.3752 290.544C41.3019 292.638 40.8992 294.707 40.9602 296.813C40.9846 297.483 41.9122 297.446 41.9733 296.813C42.2052 294.72 41.9489 292.638 42.0221 290.544Z" fill="#1C1C1B"/>
<path d="M39.984 298.907C37.8114 298.554 35.5777 298.445 33.3929 298.713C32.6605 298.798 32.7948 299.808 33.5271 299.711C35.6387 299.431 37.7748 299.37 39.8864 299.614C40.2892 299.662 40.3868 298.968 39.984 298.907Z" fill="#1C1C1B"/>
<path d="M295.575 207.298C293.378 208.272 290.619 210.086 290.29 212.679C290.192 213.446 288.996 213.787 288.813 212.874C288.532 211.486 287.91 210.22 286.884 209.222C285.823 208.175 284.394 207.724 283.247 206.787C282.893 206.495 283.088 205.825 283.528 205.74C285.774 205.302 288.19 204.072 289.191 201.978C289.081 201.601 288.996 201.199 288.959 200.785C288.911 200.225 289.423 199.763 289.936 199.677C290.51 199.592 290.986 199.957 291.169 200.481C291.657 201.905 292.353 203.159 293.219 204.328C293.952 204.961 294.782 205.509 295.563 206.044C295.966 206.336 296.112 207.067 295.575 207.298Z" fill="#D9E0FC"/>
<path d="M303.948 221.566C303.423 221.055 302.862 220.568 302.313 220.093C302.606 219.947 302.911 219.789 303.204 219.631C303.594 219.412 303.753 218.852 303.509 218.474C303.24 218.048 302.789 217.987 302.349 218.17C302.215 218.231 302.081 218.292 301.959 218.352C302.117 217.379 302.288 216.392 302.508 215.419C302.679 214.652 301.519 214.323 301.324 215.09C301.043 216.21 300.726 217.33 300.421 218.438C299.896 217.987 299.371 217.525 298.846 217.074C298.566 216.831 298.15 216.806 297.882 217.074C297.613 217.342 297.626 217.768 297.882 218.036C298.382 218.572 298.883 219.107 299.371 219.655C299.127 219.789 298.871 219.923 298.639 220.081C298.248 220.325 297.821 220.519 297.406 220.726C297.04 220.909 296.93 221.432 297.125 221.773C297.345 222.151 297.797 222.236 298.175 222.041C298.553 221.846 298.944 221.627 299.334 221.481C299.457 221.432 299.566 221.384 299.676 221.335C299.615 221.579 299.554 221.822 299.505 222.053C299.31 222.869 299.017 223.709 298.981 224.549C298.932 225.73 300.677 225.912 301.007 224.817C301.226 224.062 301.226 223.234 301.324 222.455C301.348 222.26 301.385 222.066 301.409 221.859C301.763 222.236 302.13 222.613 302.508 222.991C302.886 223.356 303.57 223.405 303.948 222.991C304.314 222.601 304.351 221.956 303.948 221.566Z" fill="#D9E0FC"/>
<path d="M28.2663 54.6498C26.6673 53.9437 25.4834 52.6776 24.8609 51.0585C24.6412 50.4742 23.8478 50.4376 23.6403 51.0585C23.3718 51.8498 22.9079 52.5559 22.383 53.1889C22.3586 53.2255 22.3342 53.262 22.3098 53.2863C21.8338 53.6881 21.2845 54.0289 20.6864 54.2237C20.2958 54.3454 20.2714 54.9298 20.6864 55.0394C21.5042 55.2585 22.2121 55.5872 22.8102 56.1959C23.3839 56.7924 23.7501 57.5228 23.8843 58.3263C23.9942 58.9837 24.9951 58.7037 24.8975 58.0463C24.7876 57.3524 25.52 56.8411 26.0448 56.5611C26.765 56.1715 27.534 55.8428 28.2907 55.502C28.5959 55.3681 28.5958 54.7959 28.2663 54.6498Z" fill="#D9E0FC"/>
<path d="M20.0391 37.716C20.4175 37.8742 20.9058 38.2029 20.7349 38.5681C20.6372 38.7751 20.3931 38.8481 20.1734 38.909C17.8787 39.469 13.6433 40.3455 13.7897 43.5351C13.8142 44.2168 12.7888 44.3264 12.618 43.6933C12.0199 41.356 10.5918 39.2377 8.41912 38.1177C7.93089 37.862 8.19945 37.1925 8.67548 37.1559C9.89606 37.0707 11.0556 36.5716 11.9832 35.7925C13.094 34.8673 13.3747 34.3438 13.6554 32.9803C13.7653 32.4325 14.0827 31.8603 14.632 31.7264C14.7296 31.702 14.8517 31.6899 14.9493 31.7386C15.1446 31.8116 15.23 32.0429 15.291 32.2377C16.0478 34.429 17.5125 36.4499 19.5631 37.509C19.734 37.5699 19.8805 37.6429 20.0391 37.716Z" fill="#D9E0FC"/>
<path d="M268.441 71.0483C267.867 70.6952 266.879 70.5978 266.476 70.0378C265.756 69.0152 267.513 69.0517 268.002 68.9178C268.905 68.6744 269.637 67.9804 270.126 67.177C270.614 66.3735 270.882 65.4604 271.139 64.5596C271.749 64.8883 271.871 65.6674 272.127 66.3126C272.567 67.4083 273.568 68.2117 274.703 68.5039C275.106 68.6013 277.29 69.0761 275.777 69.8552C274.764 70.3665 273.616 70.8048 272.786 71.6083C272.262 72.1196 271.48 74.5665 270.882 74.4691C270.614 74.4326 270.418 74.2135 270.296 73.97C270.187 73.7265 270.138 73.4587 270.065 73.203C269.93 72.7404 269.711 72.3022 269.405 71.9248C269.149 71.5839 268.819 71.2918 268.441 71.0483Z" fill="#D9E0FC"/>
<path d="M11.5688 76.0275C9.04217 76.8431 7.63852 79.3022 7.01602 81.7127C6.83293 82.3944 5.72218 82.2605 5.771 81.5422C5.84423 80.264 5.36821 79.0466 4.55041 78.0727C3.57394 76.904 2.38997 76.5509 1.03511 75.9422C0.839818 75.857 0.607901 75.7353 0.571282 75.5162C0.534665 75.3092 0.705547 75.1144 0.87643 74.9927C1.45011 74.6031 2.19468 74.6396 2.87821 74.5057C4.5138 74.2014 5.89305 72.8257 6.22261 71.2066C6.29585 70.8657 6.32027 70.5005 6.46674 70.184C6.61321 69.8675 6.94276 69.5996 7.29673 69.6483C7.72394 69.7092 7.9436 70.1718 8.09007 70.5736C8.38301 71.3892 8.57835 72.1562 9.20085 72.777C9.94541 73.5196 10.8486 74.104 11.7518 74.6153C12.3499 74.9562 12.1791 75.8327 11.5688 76.0275Z" fill="#D9E0FC"/>
</svg>
