<svg width="458" height="198" viewBox="0 0 458 198" fill="none" xmlns="http://www.w3.org/2000/svg">
<g clip-path="url(#clip0_28_250)">
<path d="M373.981 197.208C373.981 197.208 418.963 205.467 433.281 174.223C451.859 133.688 413.692 102.954 384.42 108.68C320.635 121.157 335.995 -16.4968 233.63 11.5971C204.846 19.4961 127.075 -27.4309 105.386 47.8137C100.227 65.7061 81.9546 67.6763 55.4272 79.0303C3.51094 101.249 27.2484 197.583 64.3451 197.961C101.442 198.339 373.981 197.208 373.981 197.208Z" fill="#EDDCFF"/>
<path d="M278.803 183.199C269.529 176.25 260.626 185.326 247.641 179.392C234.656 173.458 261.366 144.159 250.609 135.258C239.851 126.357 222.044 145.271 222.044 145.271C222.044 145.271 253.206 106.33 241.335 101.472C229.463 96.6148 154.381 84.1973 154.381 84.1973L140.815 162.43C138.041 158.841 132.162 154.214 127.07 160.053C120.297 167.82 143.006 184.548 139.42 187.933C135.835 191.319 127.269 176.98 120.022 182.588C112.775 188.196 122.07 197.817 122.07 197.817L142.408 198.1C142.408 198.1 142.411 197.847 142.417 197.389C159.308 197.389 285.86 197.389 285.86 197.389C285.86 197.389 288.078 190.148 278.803 183.199Z" fill="#A8D29F"/>
<path d="M181.793 79.9294L172.453 190.961C172.453 190.961 171.474 197.692 176.482 197.704C184.715 197.724 217.464 197.704 217.464 197.704C217.464 197.704 211.266 196.303 211.342 193.15C211.431 189.435 222.26 78.8789 222.26 78.8789L181.793 79.9294Z" fill="#E04E3B"/>
<path d="M220.12 195.689C218.5 195.694 187.221 195.792 179.204 195.689C175.71 195.646 175.096 192.583 175.067 190.6C175.053 189.65 175.173 188.948 175.173 188.948L175.417 186.062L176.036 178.707L176.583 172.209L177.285 163.859L177.877 156.81L184.514 77.9144L224.98 76.8652C224.98 76.8652 220.42 123.133 217.193 156.811C216.833 160.563 216.49 164.162 216.173 167.521C216.07 168.593 215.972 169.641 215.876 170.662C215.577 173.848 215.303 176.774 215.066 179.357C214.941 180.719 214.826 181.984 214.721 183.143C214.309 187.685 214.068 190.586 214.065 191.136C214.064 191.458 214.091 191.757 214.144 192.035C214.807 195.574 219.513 195.689 220.12 195.689Z" fill="#FF6652"/>
<path d="M277.797 19.5107H83.5183L106.27 110.876L109.386 123.388L119.983 165.944H316.855L277.797 19.5107Z" fill="#FF6652"/>
<path d="M83.5183 19.5107L80.366 20.5612L115.79 169.123L119.983 165.944L83.5183 19.5107Z" fill="#FF6652"/>
<path d="M115.79 169.123H311.45L316.854 165.944H119.983L115.79 169.123Z" fill="#E04E3B"/>
<path d="M184.501 197.747H226.864V195.735H184.501V197.747Z" fill="#FF6652"/>
<path d="M216.095 169.122L215.876 170.661L176.036 178.707L176.583 172.209L176.843 169.122H216.095Z" fill="#E04E3B"/>
<path opacity="0.4" d="M220.12 195.69C218.5 195.695 187.221 195.793 179.204 195.69C175.71 195.646 175.096 192.584 175.067 190.601L214.72 183.143C214.307 187.685 214.067 190.585 214.064 191.136C214.063 191.458 214.09 191.756 214.143 192.034C214.807 195.575 219.513 195.69 220.12 195.69Z" fill="#E04E3B"/>
<path opacity="0.4" d="M203.907 137.177L119.983 165.945L112.816 137.16L203.907 137.177Z" fill="#E04E3B"/>
<path d="M277.797 19.5107H83.5183L112.799 137.16L309.319 137.198L277.797 19.5107Z" fill="#8434DC"/>
<path d="M223.638 152.075C223.076 149.189 220.281 146.849 217.394 146.849C214.508 146.849 212.622 149.188 213.183 152.075C213.745 154.961 216.54 157.301 219.427 157.301C222.313 157.3 224.199 154.961 223.638 152.075Z" fill="#E04E3B"/>
<path d="M300.156 132.097H118.253L97.6523 50.0547L96.0728 43.7635L94.725 38.3972L91.5661 25.8135H270.847L274.317 38.3972L275.797 43.7635L277.531 50.0547L300.156 132.097Z" fill="#E9F3FE"/>
<path d="M270.847 25.8135H91.5661L94.725 38.3972H274.317L270.847 25.8135Z" fill="#9C4DF4"/>
<path d="M155.683 58.3613H173.819L176.172 67.4495H158.036L155.683 58.3613Z" fill="#8434DC"/>
<path d="M121.984 67.4492H140.118L142.363 76.1227H124.276L121.984 67.4492Z" fill="#8434DC"/>
<path d="M210.272 58.3613H228.407L230.76 67.4495H212.625L210.272 58.3613Z" fill="#8434DC"/>
<path d="M214.871 76.7441H233.007L235.252 85.4176H217.164L214.871 76.7441Z" fill="#8434DC"/>
<path d="M201.366 94.7129H237.733L239.988 103.801H203.718L201.366 94.7129Z" fill="#8434DC"/>
<path d="M280.096 58.0967H99.4685V58.6252H280.096V58.0967Z" fill="#9C4DF4"/>
<path d="M282.551 67.1846H102.062V67.7131H282.551V67.1846Z" fill="#9C4DF4"/>
<path d="M285.006 76.2725H103.854V76.801H285.006V76.2725Z" fill="#9C4DF4"/>
<path d="M287.459 85.3613H106.522V85.8898H287.459V85.3613Z" fill="#9C4DF4"/>
<path d="M289.913 94.4492H108.82V94.9777H289.913V94.4492Z" fill="#9C4DF4"/>
<path d="M292.368 103.538H110.983V104.067H292.368V103.538Z" fill="#9C4DF4"/>
<path d="M294.822 112.624H113.212V113.153H294.822V112.624Z" fill="#9C4DF4"/>
<path d="M297.277 121.712H115.656V122.24H297.277V121.712Z" fill="#9C4DF4"/>
<path d="M100.163 29.9277C99.2944 29.9277 98.7658 30.6316 98.9817 31.5002C99.1989 32.3689 100.078 33.0727 100.947 33.0727C101.816 33.0727 102.345 32.3689 102.129 31.5002C101.913 30.6316 101.034 29.9277 100.163 29.9277Z" fill="#E9F3FE"/>
<path d="M105.392 29.9277C104.524 29.9277 103.995 30.6316 104.211 31.5002C104.428 32.3689 105.307 33.0727 106.176 33.0727C107.045 33.0727 107.574 32.3689 107.358 31.5002C107.141 30.6316 106.261 29.9277 105.392 29.9277Z" fill="#E9F3FE"/>
<path d="M112.987 31.5002C112.77 30.6316 111.891 29.9277 111.022 29.9277C110.153 29.9277 109.624 30.6316 109.84 31.5002C110.057 32.3689 110.937 33.0727 111.806 33.0727C112.675 33.0727 113.203 32.3689 112.987 31.5002Z" fill="#E9F3FE"/>
<path d="M283.329 132.164L283.84 132.03L262.617 50.0549H277.531L275.797 43.7637H260.988L260.971 43.6982L260.716 43.7637H242.853L242.836 43.6982L242.58 43.7637H224.718L224.701 43.6982L224.445 43.7637H206.583L206.566 43.6982L206.311 43.7637H188.447L188.43 43.6982L188.175 43.7637H170.313L170.295 43.6982L170.04 43.7637H152.178L152.161 43.6982L151.904 43.7637H134.042L134.025 43.6982L133.77 43.7637H115.907L115.89 43.6982L115.635 43.7637H96.0728L97.6522 50.0549H116.99L138.248 132.164L138.758 132.03L117.536 50.0549H135.126L156.382 132.164L156.894 132.03L135.671 50.0549H153.261L174.518 132.164L175.029 132.03L153.807 50.0549H171.395L192.653 132.164L193.164 132.03L171.941 50.0549H189.531L210.789 132.164L211.299 132.03L190.077 50.0549H207.666L228.923 132.164L229.434 132.03L208.212 50.0549H225.802L247.058 132.164L247.57 132.03L226.346 50.0549H243.936L265.194 132.164L265.704 132.03L244.482 50.0549H262.072L283.329 132.164Z" fill="#9C4DF4"/>
<path d="M408.221 97.2041H370.264V135.151H408.221V97.2041Z" fill="#E04E3B"/>
<path d="M419.926 97.2041H381.968V135.151H419.926V97.2041Z" fill="#EE9849"/>
<path d="M401.349 122.51C399.818 122.516 398.582 123.762 398.588 125.292C398.595 126.823 399.84 128.058 401.371 128.053C402.902 128.046 404.138 126.801 404.133 125.27C404.127 123.74 402.88 122.503 401.349 122.51Z" fill="#EBF2F9"/>
<path d="M401.373 109.421C402.904 109.414 404.14 108.169 404.134 106.638C404.127 105.108 402.881 103.873 401.35 103.878C399.819 103.884 398.583 105.13 398.589 106.661C398.596 108.191 399.842 109.427 401.373 109.421Z" fill="#EBF2F9"/>
<path d="M413.194 113.358L389.437 113.456L389.46 118.999L413.217 118.9L413.194 113.358Z" fill="#EBF2F9"/>
<path d="M77.4099 123.495H44.9625V155.934H77.4099V123.495Z" fill="#4A75CB"/>
<path d="M87.4152 123.495H54.9679V155.934H87.4152V123.495Z" fill="#699DEE"/>
<path d="M81.6679 137.345H61.3589V142.083H81.6679V137.345Z" fill="#EBF2F9"/>
<path d="M351.555 197.984H414.407V135.15H351.555V197.984Z" fill="#E04E3B"/>
<path d="M395.028 135.149H332.176V197.984H395.028V135.149Z" fill="#FF6652"/>
<path d="M382.646 161.978H367.567V146.903H358.386V161.978H343.309V171.155H358.386V186.23H367.567V171.155H382.646V161.978Z" fill="#EBF2F9"/>
<path d="M395.028 135.149L414.408 144.584V135.149H395.028Z" fill="#C95C12"/>
<path d="M431.025 198.101H32.5848C32.3898 198.101 32.2288 197.942 32.2288 197.745C32.2288 197.551 32.3885 197.39 32.5848 197.39H431.025C431.22 197.39 431.381 197.549 431.381 197.745C431.38 197.942 431.22 198.101 431.025 198.101Z" fill="#283250"/>
<path d="M90.0441 155.934H48.5755V197.391H90.0441V155.934Z" fill="#E04E3B"/>
<path d="M102.83 155.934H61.3616V197.391H102.83V155.934Z" fill="#FF6652"/>
<path d="M93.9385 183.509L86.7897 176.593L93.7095 169.445L89.3559 165.233L82.4374 172.38L75.2887 165.464L71.0764 169.815L78.2251 176.733L71.3067 183.879L75.659 188.09L82.5775 180.944L89.7262 187.86L93.9385 183.509Z" fill="#EBF2F9"/>
<path d="M61.3615 155.934L48.5755 163.683V155.934H61.3615Z" fill="#C95C12"/>
<path d="M271.812 89.0605C271.812 89.0605 281.479 98.9022 281.944 102.667C282.408 106.432 277.341 112.322 277.341 112.322L271.812 89.0605Z" fill="#E58638"/>
<path d="M267.67 192.617C267.67 192.617 267.464 195.933 266.869 197.36H254.781C254.986 196.885 255.461 196.276 256.562 196.083C258.456 195.752 261.624 194.423 262.77 191.922C263.977 189.291 267.67 192.617 267.67 192.617Z" fill="#163560"/>
<path d="M282.093 192.617C282.093 192.617 281.887 195.933 281.293 197.36H269.206C269.409 196.885 269.884 196.276 270.987 196.083C272.879 195.752 276.048 194.423 277.195 191.922C278.401 189.291 282.093 192.617 282.093 192.617Z" fill="#163560"/>
<path d="M260.497 135.575C260.497 135.575 262.191 146.404 268.51 165.628C274.829 184.853 275.689 193.177 275.689 193.177L282.467 192.987C282.467 192.987 282.525 171.977 279.613 162.311C276.702 152.644 278.985 127.46 278.985 127.46L260.497 135.575Z" fill="#163560"/>
<path d="M257.199 128.052C257.199 128.052 256.959 144.37 259.783 164.408C262.607 184.446 261.65 192.951 261.65 192.951L268.414 193.176C268.414 193.176 272.456 173.132 271.298 163.103C270.139 153.074 276.834 128.689 276.834 128.689L257.199 128.052Z" fill="#1C468A"/>
<path d="M270.293 89.8627L266.69 92.2253L261.481 91.2546C261.553 90.8347 261.898 89.0921 262.21 87.5144C262.229 87.4216 262.248 87.3287 262.265 87.2371C262.534 85.8949 262.765 84.741 262.765 84.741L267.63 82.5955L269.444 81.7949C269.439 81.8237 269.304 83.285 269.284 83.4982C268.944 87.2881 270.293 89.8627 270.293 89.8627Z" fill="#FFB27D"/>
<path d="M279.432 130.067C278.387 134.838 260.978 135.403 256.489 131.073C255.979 130.579 255.954 128.282 256.146 125.186C256.523 119.137 257.732 110.037 257.779 105.387C257.803 103.142 258.11 100.845 258.523 98.7598C259.397 94.3158 260.73 90.8281 260.73 90.8281C260.73 90.8281 269.233 88.0795 270.825 88.5479C278.49 90.798 280.479 125.296 279.432 130.067Z" fill="#EE9849"/>
<path d="M256.148 125.186C256.525 119.137 257.734 110.037 257.781 105.388C257.804 103.143 258.112 100.845 258.524 98.7601L263.639 97.8574C263.638 97.8574 268.639 118.279 256.148 125.186Z" fill="#E58638"/>
<path d="M258.917 116.753C258.917 116.753 259.265 117.586 258.533 118.145C257.802 118.705 257.327 119.61 257.494 120.273C257.662 120.935 259.269 122.016 259.825 121.842C260.381 121.668 261.514 120.795 261.392 120.446C261.271 120.097 262.155 117.38 260.797 116.334C259.44 115.289 258.917 116.753 258.917 116.753Z" fill="#FFB27D"/>
<path d="M264.636 89.6045C264.636 89.6045 259.648 90.5373 255.673 96.3941C251.697 102.25 249.083 106.605 249.816 108.715C250.548 110.825 257.222 118.146 258.372 118.146C259.523 118.146 261.379 117.31 261.484 115.427C261.484 115.427 256.785 108.387 257.71 107.332C258.105 106.881 263.811 102.251 264.626 104.343C265.974 107.802 264.636 89.6045 264.636 89.6045Z" fill="#EE9849"/>
<path d="M268.919 83.565C267.852 85.3743 263.871 86.9389 262.21 87.5132C262.229 87.4203 262.248 87.3275 262.265 87.2359C262.533 85.8937 262.765 84.7398 262.765 84.7398L267.63 82.5944C268.706 82.58 269.36 82.8207 268.919 83.565Z" fill="#FCA56B"/>
<path d="M260.932 84.4457C260.932 84.4457 268.768 86.8895 270.215 81.9876C271.662 77.0857 273.649 74.0991 268.706 72.3317C263.764 70.5643 262.235 72.1459 261.355 73.6647C260.474 75.1836 258.931 83.683 260.932 84.4457Z" fill="#FFB27D"/>
<path d="M261.662 73.1924C261.662 73.1924 262.162 78.8975 263.342 78.6489C264.523 78.4004 265.593 78.2172 265.42 79.9375C265.247 81.6565 263.61 83.6424 267.248 83.9472C270.885 84.252 276.113 74.8747 275.114 73.0995C272.23 67.9765 257.495 66.943 261.662 73.1924Z" fill="#163560"/>
<path d="M262.815 88.6712C262.916 88.628 269.087 86.8083 269.758 87.0294C270.428 87.2505 270.826 88.5469 270.826 88.5469L260.732 90.8284C260.732 90.8284 261.526 89.2141 262.815 88.6712Z" fill="#E58638"/>
<path d="M67.7762 103.112C67.7762 103.112 64.5048 99.2959 67.5747 96.873C67.5747 96.873 69.8163 95.5164 71.6457 95.6263C71.6457 95.6263 69.0547 99.9696 69.8935 100.401C70.7323 100.833 72.4308 95.3542 72.4308 95.3542C72.4308 95.3542 77.533 94.8597 79.1752 95.6485C79.1752 95.6485 74.8138 99.2174 75.7324 99.4293C76.651 99.6412 81.3632 96.1391 81.3632 96.1391C81.3632 96.1391 86.112 96.9476 85.8594 99.8427C85.6069 102.739 83.9698 103.633 83.2501 103.557C82.5304 103.48 78.3234 101.874 78.2318 102.463C78.1402 103.052 80.6722 104.977 82.4454 105.068C82.4454 105.068 79.0967 108.759 76.8721 107.693C74.6476 106.628 74.4565 104.939 73.0694 104.306C71.6823 103.673 70.4981 103.674 71.0712 104.321C71.6444 104.967 74.1542 105.595 74.9472 106.997C75.7402 108.4 76.4521 109.346 74.1503 109C71.8485 108.653 68.106 106.97 67.9411 105.042C67.7763 103.113 67.7762 103.112 67.7762 103.112Z" fill="#82B378"/>
<path d="M83.5236 99.9209C83.5236 99.9209 70.625 99.4237 67.7762 103.112C67.7762 103.112 67.1468 104.998 65.2075 106.716L64.9052 107.539C64.9052 107.539 67.1403 105.182 67.9398 105.04C67.9411 105.04 66.6901 100.472 83.5236 99.9209Z" fill="#82B378"/>
<path d="M65.2075 106.716C65.2075 106.716 62.4386 108.764 62.2462 112.42L62.7487 112.465C62.7487 112.465 63.6333 108.683 65.2311 107.204C66.8302 105.726 65.2075 106.716 65.2075 106.716Z" fill="#82B378"/>
<path d="M56.338 98.3142C56.338 98.3142 61.5422 95.4008 59.1135 91.4473C59.1135 91.4473 57.1702 89.0193 55.0896 88.3953C55.0896 88.3953 56.1993 94.2914 55.0896 94.4301C53.9799 94.5687 54.3267 87.7713 54.3267 87.7713C54.3267 87.7713 48.8451 85.1352 46.6938 85.3432C46.6938 85.3432 50.0935 91.1007 48.9838 90.962C47.8741 90.8233 44.057 84.9965 44.057 84.9965C44.057 84.9965 38.4367 83.9565 37.5351 87.2859C36.6335 90.6153 38.09 92.2807 38.9235 92.4887C39.7558 92.6967 45.0987 92.6274 44.9599 93.3207C44.8212 94.0141 41.2135 95.1247 39.2009 94.4994C39.2009 94.4994 41.4216 99.9795 44.3358 99.7022C47.2499 99.4248 48.1516 97.6208 49.9561 97.4821C51.7606 97.3435 53.0783 97.8288 52.1767 98.3142C51.2751 98.7995 48.2222 98.4738 46.7645 99.7113C45.3067 100.95 44.1277 101.713 46.8338 102.268C49.5399 102.822 54.3974 102.476 55.3683 100.394C56.338 98.3141 56.338 98.3142 56.338 98.3142Z" fill="#A8D29F"/>
<path d="M40.1025 88.3262C40.1025 88.3262 54.6734 93.0436 56.3392 98.3144C56.3392 98.3144 56.2699 100.673 57.7263 103.378V104.419C57.7263 104.419 56.1992 100.881 55.367 100.396C55.367 100.396 58.6279 95.817 40.1025 88.3262Z" fill="#82B378"/>
<path d="M57.7263 103.378C57.7263 103.378 59.9731 106.79 58.692 110.942L58.1136 110.787C58.1136 110.787 58.675 106.213 57.4986 103.912C56.3235 101.612 57.7263 103.378 57.7263 103.378Z" fill="#82B378"/>
<path d="M64.6173 94.296C64.6173 94.296 57.7578 90.4551 60.9585 85.2432C60.9585 85.2432 63.5194 82.0433 66.2635 81.2205C66.2635 81.2205 64.8005 88.9925 66.2635 89.1757C67.7264 89.3588 67.2698 80.3976 67.2698 80.3976C67.2698 80.3976 74.4957 76.923 77.33 77.1977C77.33 77.1977 72.8482 84.7866 74.3112 84.6035C75.7742 84.4203 80.8056 76.7398 80.8056 76.7398C80.8056 76.7398 88.2134 75.3688 89.4029 79.7579C90.5924 84.1469 88.6714 86.3408 87.5735 86.6155C86.4756 86.8902 79.4329 86.7987 79.6161 87.7131C79.7993 88.6276 84.5547 90.0901 87.2071 89.2673C87.2071 89.2673 84.2799 96.4912 80.4392 96.1249C76.5973 95.7586 75.4091 93.3816 73.0314 93.1985C70.6537 93.0153 68.9159 93.6563 70.1041 94.296C71.2936 94.9358 75.3175 94.5054 77.2384 96.138C79.1594 97.7707 80.714 98.7767 77.1468 99.508C73.5797 100.239 67.1782 99.7827 65.8971 97.0394C64.6173 94.296 64.6173 94.296 64.6173 94.296Z" fill="#A8D29F"/>
<path d="M86.019 81.1289C86.019 81.1289 66.8118 87.3468 64.6173 94.2961C64.6173 94.2961 64.7089 97.4044 62.788 100.971V102.342C62.788 102.342 64.8005 97.6778 65.8971 97.0381C65.8984 97.0394 61.5998 91.0033 86.019 81.1289Z" fill="#82B378"/>
<path d="M62.788 100.97C62.788 100.97 59.8253 105.467 61.5147 110.942L62.2763 110.738C62.2763 110.738 61.537 104.708 63.0863 101.676C64.637 98.6432 62.788 100.97 62.788 100.97Z" fill="#82B378"/>
<path d="M64.3857 122.812C71.8067 122.812 77.8222 116.798 77.8222 109.379H50.9493C50.9493 116.798 56.9648 122.812 64.3857 122.812Z" fill="#FF6652"/>
<path d="M67.6925 122.71C67.1455 122.778 66.5893 122.813 66.0227 122.813C58.6018 122.813 52.5863 116.798 52.5863 109.379H55.9245C55.9258 116.233 61.0593 121.887 67.6925 122.71Z" fill="#FFB973"/>
<path d="M76.3512 121.838H52.4214C51.5054 121.838 50.7634 122.58 50.7634 123.495H78.0092C78.0092 122.58 77.2672 121.838 76.3512 121.838Z" fill="#FF6652"/>
<path d="M78.1283 109.379H50.507V109.791H78.1283V109.379Z" fill="#E04E3B"/>
</g>
<defs>
<clipPath id="clip0_28_250">
<rect width="458" height="198" fill="white"/>
</clipPath>
</defs>
</svg>
