<svg width="24" height="24" viewBox="0 0 24 24" fill="none" xmlns="http://www.w3.org/2000/svg">
<path d="M13.1425 9.24265C13.2859 9.24265 13.4242 9.26571 13.5574 9.30413L16.0419 6.25866C16.2007 6.064 16.4953 6.02814 16.6874 6.19207C16.8744 6.34831 16.9 6.6275 16.7437 6.81704L14.2874 9.82921C14.4539 10.0597 14.5538 10.3441 14.5538 10.6514C14.5538 11.2226 14.2105 11.717 13.7213 11.9372H23.3597C23.7132 11.9372 24.0001 11.6504 24.0001 11.2969V3.19015C24.0001 2.83668 23.7132 2.5498 23.3597 2.5498H11.1164C10.7629 2.5498 10.4761 2.83668 10.4761 3.19015V8.51266L11.0549 9.24522H13.1425V9.24265Z" fill="url(#paint0_linear_101_27)"/>
<path d="M5.15601 5.74385C6.60456 5.74385 7.77885 4.56956 7.77885 3.12101C7.77885 1.67245 6.60456 0.498169 5.15601 0.498169C3.70746 0.498169 2.53317 1.67245 2.53317 3.12101C2.53317 4.56956 3.70746 5.74385 5.15601 5.74385Z" fill="url(#paint1_linear_101_27)"/>
<path d="M7.84546 22.8615C7.84546 23.215 7.55859 23.5018 7.20512 23.5018H6.12935C5.77588 23.5018 5.48901 23.215 5.48901 22.8615V17.4928C5.48901 17.3033 5.33533 17.1496 5.14578 17.1496C4.95624 17.1496 4.80256 17.3033 4.80256 17.4928V22.8358C4.80256 23.2021 4.50288 23.5018 4.13661 23.5018H3.08388C2.73042 23.5018 2.44354 23.215 2.44354 22.8615L2.43842 9.90095C2.43842 9.72678 2.29755 9.58337 2.12081 9.58337C1.94664 9.58337 1.8032 9.72424 1.8032 9.90095V14.8854C1.8032 15.2388 1.51633 15.5257 1.16286 15.5257H0.640342C0.286873 15.5257 0 15.2388 0 14.8854V8.05165C0 7.23969 0.658271 6.58398 1.46766 6.58398H7.29989C7.92484 6.58398 8.51654 6.87086 8.90587 7.36008L10.4734 9.33745L10.8038 9.75495C10.8038 9.75495 12.2894 9.75496 13.1449 9.75752C13.4984 9.75752 13.7852 10.0444 13.7852 10.3979V10.9076C13.7852 11.261 13.4984 11.5479 13.1449 11.5479H10.3735C10.0995 11.5479 9.84077 11.4224 9.67172 11.2072L8.50374 9.70626C8.44482 9.62942 8.35005 9.58332 8.25272 9.58332H8.17332C7.99915 9.58332 7.85573 9.72419 7.85573 9.9009L7.84546 22.8615Z" fill="url(#paint2_linear_101_27)"/>
<defs>
<linearGradient id="paint0_linear_101_27" x1="17.2381" y1="2.5498" x2="17.2381" y2="11.9372" gradientUnits="userSpaceOnUse">
<stop stop-color="#4DB68D"/>
<stop offset="1" stop-color="#8CC3AE"/>
</linearGradient>
<linearGradient id="paint1_linear_101_27" x1="5.15601" y1="0.498169" x2="5.15601" y2="5.74385" gradientUnits="userSpaceOnUse">
<stop stop-color="#4DB68D"/>
<stop offset="1" stop-color="#8CC3AE"/>
</linearGradient>
<linearGradient id="paint2_linear_101_27" x1="6.89262" y1="6.58398" x2="6.89262" y2="23.5018" gradientUnits="userSpaceOnUse">
<stop stop-color="#4DB68D"/>
<stop offset="1" stop-color="#8CC3AE"/>
</linearGradient>
</defs>
</svg>
