<svg width="22" height="19" viewBox="0 0 22 19" fill="none" xmlns="http://www.w3.org/2000/svg">
<path d="M14.6 4.19997C14.6 5.15475 14.2207 6.07043 13.5456 6.74556C12.8704 7.42069 11.9547 7.79997 11 7.79997C10.0452 7.79997 9.12951 7.42069 8.45438 6.74556C7.77925 6.07043 7.39997 5.15475 7.39997 4.19997C7.39997 3.2452 7.77925 2.32952 8.45438 1.65439C9.12951 0.97926 10.0452 0.599976 11 0.599976C11.9547 0.599976 12.8704 0.97926 13.5456 1.65439C14.2207 2.32952 14.6 3.2452 14.6 4.19997Z" fill="url(#paint0_linear_101_17)"/>
<path d="M20.6001 6.59995C20.6001 7.23647 20.3472 7.84692 19.8971 8.29701C19.447 8.74709 18.8366 8.99995 18.2001 8.99995C17.5636 8.99995 16.9531 8.74709 16.503 8.29701C16.0529 7.84692 15.8001 7.23647 15.8001 6.59995C15.8001 5.96343 16.0529 5.35298 16.503 4.90289C16.9531 4.45281 17.5636 4.19995 18.2001 4.19995C18.8366 4.19995 19.447 4.45281 19.8971 4.90289C20.3472 5.35298 20.6001 5.96343 20.6001 6.59995Z" fill="url(#paint1_linear_101_17)"/>
<path d="M15.8 14.9999C15.8 13.7269 15.2943 12.506 14.3941 11.6058C13.4939 10.7057 12.273 10.2 11 10.2C9.72694 10.2 8.50604 10.7057 7.60587 11.6058C6.70569 12.506 6.19998 13.7269 6.19998 14.9999V18.5999H15.8V14.9999Z" fill="url(#paint2_linear_101_17)"/>
<path d="M6.19997 6.59995C6.19997 7.23647 5.94711 7.84692 5.49702 8.29701C5.04694 8.74709 4.43649 8.99995 3.79997 8.99995C3.16345 8.99995 2.553 8.74709 2.10291 8.29701C1.65282 7.84692 1.39997 7.23647 1.39997 6.59995C1.39997 5.96343 1.65282 5.35298 2.10291 4.90289C2.553 4.45281 3.16345 4.19995 3.79997 4.19995C4.43649 4.19995 5.04694 4.45281 5.49702 4.90289C5.94711 5.35298 6.19997 5.96343 6.19997 6.59995Z" fill="url(#paint3_linear_101_17)"/>
<path d="M18.2001 18.5999V14.9999C18.2018 13.7799 17.892 12.5796 17.3001 11.5127C17.8321 11.3766 18.3882 11.3637 18.9259 11.4752C19.4637 11.5866 19.9688 11.8194 20.4029 12.1558C20.837 12.4922 21.1885 12.9233 21.4306 13.4162C21.6728 13.9091 21.7991 14.4508 21.8001 14.9999V18.5999H18.2001Z" fill="url(#paint4_linear_101_17)"/>
<path d="M4.69998 11.5128C4.10808 12.5796 3.7983 13.7799 3.79998 15V18.6H0.199982V15C0.199751 14.4504 0.325338 13.9081 0.567118 13.4146C0.808899 12.9211 1.16045 12.4895 1.59484 12.1529C2.02923 11.8162 2.53492 11.5835 3.07315 11.4726C3.61139 11.3616 4.16788 11.3754 4.69998 11.5128Z" fill="url(#paint5_linear_101_17)"/>
<defs>
<linearGradient id="paint0_linear_101_17" x1="11" y1="0.599976" x2="11" y2="7.79997" gradientUnits="userSpaceOnUse">
<stop stop-color="#EF777B"/>
<stop offset="1" stop-color="#F08F92"/>
</linearGradient>
<linearGradient id="paint1_linear_101_17" x1="18.2001" y1="4.19995" x2="18.2001" y2="8.99995" gradientUnits="userSpaceOnUse">
<stop stop-color="#EF777B"/>
<stop offset="1" stop-color="#F08F92"/>
</linearGradient>
<linearGradient id="paint2_linear_101_17" x1="11" y1="10.2" x2="11" y2="18.5999" gradientUnits="userSpaceOnUse">
<stop stop-color="#EF777B"/>
<stop offset="1" stop-color="#F08F92"/>
</linearGradient>
<linearGradient id="paint3_linear_101_17" x1="3.79997" y1="4.19995" x2="3.79997" y2="8.99995" gradientUnits="userSpaceOnUse">
<stop stop-color="#EF777B"/>
<stop offset="1" stop-color="#F08F92"/>
</linearGradient>
<linearGradient id="paint4_linear_101_17" x1="19.5501" y1="11.4001" x2="19.5501" y2="18.5999" gradientUnits="userSpaceOnUse">
<stop stop-color="#EF777B"/>
<stop offset="1" stop-color="#F08F92"/>
</linearGradient>
<linearGradient id="paint5_linear_101_17" x1="2.44998" y1="11.3984" x2="2.44998" y2="18.6" gradientUnits="userSpaceOnUse">
<stop stop-color="#EF777B"/>
<stop offset="1" stop-color="#F08F92"/>
</linearGradient>
</defs>
</svg>
